<svg enable-background="new 0 0 680.3 198.4" viewBox="0 0 680.3 198.4" xmlns="http://www.w3.org/2000/svg"><path d="m20.2 51.1c0-22.6 18.3-40.8 40.8-40.8h97c22.6 0 40.8 18.3 40.8 40.8v97c0 22.6-18.3 40.8-40.8 40.8h-97c-22.6 0-40.8-18.3-40.8-40.8z"/><path d="m67.6 141.5c0-11.6 9.4-20.9 20.9-20.9h20.9v20.9c0 11.6-9.4 20.9-20.9 20.9s-20.9-9.4-20.9-20.9z" fill="#24cb71"/><path d="m109.5 36.7v41.9h20.9c11.6 0 20.9-9.4 20.9-20.9 0-11.6-9.4-20.9-20.9-20.9h-20.9z" fill="#ff7237"/><ellipse cx="130.3" cy="99.6" fill="#00b6ff" rx="20.9" ry="20.9"/><path d="m67.6 57.7c0 11.6 9.4 20.9 20.9 20.9h20.9v-41.9h-20.8c-11.6 0-21 9.4-21 21z" fill="#ff3737"/><path d="m67.6 99.6c0 11.6 9.4 20.9 20.9 20.9h20.9v-41.9h-20.8c-11.6 0-21 9.4-21 21z" fill="#874fff"/><path d="m620.5 161.2c-5.5 0-10.5-1.1-14.8-3.2s-7.7-5-10.3-8.6c-2.5-3.7-3.7-8-3.7-12.8 0-6.3 2-11.4 6.1-15.3 4-3.9 9.8-6.6 17.4-8.1l19.7-4c3.9-.8 6.6-2 8.1-3.7s2.2-4.1 2.2-7.4l2 19.7-28.3 6.1c-3.8.8-6.8 2.2-8.9 4.2-2 2-3 4.8-3 8.4 0 3.7 1.4 6.7 4.2 8.9 2.9 2.2 6.9 3.4 11.8 3.4 4 0 7.8-.9 11.1-2.7 3.5-1.8 6.2-4.3 8.1-7.4 2-3.2 3-6.9 3-11.1v-29.4c0-4-1.5-7.2-4.4-9.4-2.8-2.4-6.7-3.5-11.6-3.5-6.3 0-11.1 1.6-14.5 4.7s-5.3 7.6-5.9 13.3l-14.8-2c.6-5.9 2.4-11 5.4-15.3 3-4.4 7.1-7.7 12.1-10.1 5.1-2.4 11.1-3.5 18-3.5 9.9 0 17.5 2.5 22.8 7.6 5.3 5 7.9 11.5 7.9 19.5v59.3h-14.7v-10.9c-1.5 3.7-4.4 6.9-8.9 9.6-4.4 2.4-9.8 3.7-16.1 3.7z"/><path d="m472.2 158.7v-83.9h14.7v9.4c1.1-3.2 3.6-6.1 7.4-8.4 3.8-2.4 8.3-3.5 13.3-3.5 4.9 0 9.5 1.1 13.7 3.2s6.9 5.3 8.1 9.6c1.5-3.9 4.2-7 8.1-9.2 4-2.4 8.5-3.5 13.5-3.5 8.5 0 15.1 2.5 19.6 7.4s6.7 12.1 6.7 21.5v57.5h-15v-55.5c0-5.6-1.2-9.8-3.7-12.6-2.4-2.9-5.8-4.4-10.5-4.4-5.1 0-9 1.8-11.8 5.4-2.7 3.5-4 8.6-4 15.3v51.8h-15v-55.5c0-5.6-1.2-9.8-3.7-12.6-2.4-2.9-5.8-4.4-10.5-4.4-5.1 0-9 1.8-11.8 5.4-2.7 3.5-4 8.6-4 15.3v51.8h-15.1z"/><path d="m414.8 188.9c-10.5 0-18.9-2.4-25.5-7.2s-10.7-11.5-12.5-20.2l14.7-3.2c1.2 5.5 3.9 9.8 7.9 12.8 4 3.1 9.2 4.7 15.3 4.7 7.4 0 13-1.9 16.7-5.7 3.8-3.7 5.7-9.2 5.7-16.6v-13.3c-1.7 4.1-4.8 7.5-9.4 10.1-4.5 2.6-9.6 3.9-15.2 3.9-7.4 0-13.9-1.7-19.6-5-5.6-3.5-10-8.3-13.1-14.5s-4.7-13.3-4.7-21.3c0-8.2 1.6-15.4 4.7-21.5 3.1-6.2 7.5-10.9 13-14.3 5.6-3.5 12.2-5.2 19.7-5.2 5.6 0 10.7 1.3 15.3 3.9 4.7 2.5 7.9 5.5 9.6 9.2v-10.7h14.7v78.7c0 7.4-1.5 13.7-4.4 19-2.9 5.4-7.2 9.5-12.8 12.3-5.3 2.7-12.1 4.1-20.1 4.1zm-.3-48c7.2 0 12.9-2.5 17.2-7.6 4.4-5 6.6-11.7 6.6-20 0-8.4-2.2-15.1-6.6-20.2-4.4-5-10.1-7.6-17.2-7.6-7.2 0-13 2.5-17.4 7.6-4.3 5-6.4 11.8-6.4 20.2 0 8.3 2.2 15 6.6 20s10.1 7.6 17.2 7.6z"/><path d="m344.9 158.6v-83.8h15v83.9zm-.1-94.6v-23.8h15.3v23.8z"/><path d="m258.8 158.7v-118.5h15.8v118.5zm3.2-50.1v-14.3h64.6v14.3zm0-54v-14.4h70.8v14.5h-70.8z"/></svg>