<svg viewBox="0 0 630 630" xmlns="http://www.w3.org/2000/svg"><path d="m0 0h630v630h-630z" fill="#f7df1e"/><path d="m165.65 526.47375 48.2125-29.1775c9.30125 16.49125 17.7625 30.44375 38.0575 30.44375 19.45375 0 31.71875-7.60975 31.71875-37.21v-201.3h59.20375v202.1375c0 61.32-35.94375 89.23125-88.385 89.23125-47.36125 0-74.8525-24.52875-88.8075-54.13"/><path d="m375 520.13 48.20625-27.91125c12.69 20.72375 29.1825 35.9475 58.36125 35.9475 24.53125 0 40.17375-12.26475 40.17375-29.18125 0-20.29875-16.06875-27.48875-43.135-39.32625l-14.7975-6.3475c-42.715-18.18125-71.05-41.0175-71.05-89.2275 0-44.40375 33.83125-78.2375 86.695-78.2375 37.6375 0 64.7025 13.11125 84.15375 47.36625l-46.09625 29.60125c-10.15-18.1825-21.1425-25.37125-38.0575-25.37125-17.33875 0-28.335 10.995-28.335 25.37125 0 17.7625 10.99625 24.9525 36.3675 35.94875l14.8 6.3425c50.325 21.56875 78.66 43.5575 78.66 93.03375 0 53.2875-41.86625 82.465-98.11 82.465-54.97625 0-90.5-26.2175-107.83625-60.47375"/></svg>