<svg enable-background="new 0 0 680.3 198.4" viewBox="0 0 680.3 198.4" xmlns="http://www.w3.org/2000/svg"><g fill="#ff2d20"><path d="m262.8 48.1h-16.5v100.2h47.4v-14.7h-30.9z"/><path d="m351.9 90.6c-2.1-3.3-5.1-6-8.9-7.9-3.9-1.9-7.8-2.9-11.7-2.9-5.1 0-9.7.9-13.9 2.8s-7.8 4.4-10.8 7.7c-3 3.2-5.3 7-7 11.2s-2.5 8.7-2.5 13.4c0 4.8.8 9.3 2.5 13.5s4 7.9 7 11.2c3 3.2 6.6 5.8 10.8 7.7s8.8 2.8 13.9 2.8c3.9 0 7.8-1 11.7-2.9s6.8-4.5 8.9-7.9v9h15.6v-66.7h-15.6zm-1.5 32.5c-1 2.6-2.3 4.8-4 6.7s-3.8 3.4-6.2 4.6c-2.4 1.1-5.1 1.7-8.1 1.7s-5.6-.6-8-1.7-4.4-2.7-6.2-4.6c-1.7-1.9-3-4.2-3.9-6.7-.9-2.6-1.4-5.3-1.4-8.2s.5-5.6 1.4-8.2 2.2-4.8 3.9-6.7 3.8-3.4 6.2-4.6c2.4-1.1 5.1-1.7 8-1.7 3 0 5.7.6 8.1 1.7s4.5 2.7 6.2 4.6 3.1 4.2 4 6.7c1 2.6 1.4 5.3 1.4 8.2.1 2.9-.4 5.6-1.4 8.2z"/><path d="m478.7 90.6c-2.1-3.3-5.1-6-8.9-7.9-3.9-1.9-7.8-2.9-11.7-2.9-5.1 0-9.7.9-13.9 2.8s-7.8 4.4-10.8 7.7c-3 3.2-5.3 7-7 11.2s-2.5 8.7-2.5 13.4c0 4.8.8 9.3 2.5 13.5s4 7.9 7 11.2c3 3.2 6.6 5.8 10.8 7.7s8.8 2.8 13.9 2.8c3.9 0 7.8-1 11.7-2.9s6.8-4.5 8.9-7.9v9h15.6v-66.7h-15.6zm-1.4 32.5c-1 2.6-2.3 4.8-4 6.7s-3.8 3.4-6.2 4.6c-2.4 1.1-5.1 1.7-8.1 1.7s-5.6-.6-8-1.7-4.4-2.7-6.2-4.6c-1.7-1.9-3-4.2-3.9-6.7-.9-2.6-1.4-5.3-1.4-8.2s.5-5.6 1.4-8.2 2.2-4.8 3.9-6.7 3.8-3.4 6.2-4.6c2.4-1.1 5.1-1.7 8-1.7 3 0 5.7.6 8.1 1.7s4.5 2.7 6.2 4.6 3.1 4.2 4 6.7c1 2.6 1.4 5.3 1.4 8.2s-.5 5.6-1.4 8.2z"/><path d="m649.9 48.1h15.6v100.2h-15.6z"/><path d="m379.8 148.3h15.6v-51.3h26.8v-15.4h-42.4z"/><path d="m556.9 81.6-19.6 51.1-19.6-51.1h-15.8l25.6 66.7h19.6l25.6-66.7z"/><path d="m606.8 79.9c-19.1 0-34.2 15.7-34.2 35.1 0 21.4 14.6 35.1 36.2 35.1 12.1 0 19.8-4.6 29.2-14.7l-10.5-8.2s-8 10.4-19.8 10.4c-13.8 0-19.6-11.1-19.6-16.9h51.8c2.6-22-11.9-40.8-33.1-40.8zm-18.8 29.3c.1-1.3 1.9-16.9 18.6-16.9s18.7 15.6 18.8 16.9z"/><path d="m198.8 47.3c0-.1-.1-.2-.1-.2-.1-.2-.1-.3-.2-.5-.1-.1-.1-.2-.2-.3s-.2-.2-.3-.3-.2-.1-.3-.2-.2-.2-.3-.3l-35.6-20.5c-.9-.5-2-.5-3 0l-35.6 20.5c-.1.1-.2.2-.3.3s-.2.1-.3.2-.2.2-.3.3-.1.2-.2.3-.1.3-.2.5c0 .1-.1.2-.1.2-.1.2-.1.5-.1.8v39l-29.7 17.1v-76.3c0-.3 0-.5-.1-.8 0-.1-.1-.2-.1-.2-.1-.2-.1-.3-.2-.5-.1-.1-.1-.2-.2-.3s-.2-.2-.3-.3-.2-.1-.3-.2-.2-.2-.3-.3l-35.6-20.5c-.9-.5-2-.5-3 0l-35.6 20.5c-.1.1-.2.2-.3.3s-.2.1-.3.2-.2.2-.3.3-.1.2-.2.3-.1.3-.2.5c0 .1-.1.2-.1.2-.1.2-.1.5-.1.8v122.1c0 1.1.6 2 1.5 2.6l71.3 41c.2.1.3.1.5.2.1 0 .1.1.2.1.2.1.5.1.8.1s.5 0 .8-.1c.1 0 .1-.1.2-.1.2-.1.4-.1.5-.2l71.3-41c.9-.5 1.5-1.5 1.5-2.6v-39l34.2-19.7c.9-.5 1.5-1.5 1.5-2.6v-40.6c-.2-.3-.2-.5-.3-.8zm-109.8 99.3-29.6-16.8 31.1-17.9 34.2-19.7 29.7 17.1-21.8 12.4zm68.4-76.3v33.8l-12.5-7.1-17.2-9.9v-33.9l12.5 7.2zm2.9-39.3 29.7 17.1-29.7 17.1-29.7-17.1zm-91.5 86.5-12.5 7.2v-74.6l17.2-9.9 12.6-7.2v74.5zm-15.4-106.7 29.7 17.1-29.7 17.1-29.7-17.1zm-32.7 22.2 12.5 7.2 17.2 9.9v79.7s0 0 0 0v.3c0 .1 0 .3.1.4 0 .1.1.2.1.3.1.1.1.3.2.4.1.1.1.2.2.3s.1.2.2.3c.1.1.2.1.3.2s.2.2.3.2 0 0 0 0l34.1 19.3v34.2l-65.4-37.6zm136.7 115.3-65.4 37.6v-34.2l48.4-27.6 17-9.7zm35.6-61.2-29.7 17.1v-33.9l17.2-9.9 12.5-7.2z"/></g></svg>