<svg fill="none" height="200" viewBox="0 0 895 200" width="895" xmlns="http://www.w3.org/2000/svg"><path d="m174.998 0h-149.9983c-13.807 0-24.9997 11.1929-24.9997 25v150c0 13.807 11.1927 25 24.9997 25h149.9983c13.806 0 24.999-11.193 24.999-25v-150c0-13.8071-11.193-25-24.999-25z" fill="#2b2c30"/><g fill="#fff"><path d="m157.948 89.7373c-2.438-2.4375-6.4-2.4375-8.837 0l-52.1498 52.1497-7.0749-7.075-14.1373 14.138 7.0749 7.075 9.7249 9.725c2.4375 2.437 6.3999 2.437 8.8372 0l52.149-52.15 7.075 7.075 14.138-14.138z"/><path d="m47.4621 120.675 14.1375-14.137-7.075-7.0755 42.425-42.425 7.0754 7.075 14.137-14.1375-16.787-16.7875c-2.4379-2.4375-6.4004-2.4375-8.8379 0l-61.8625 61.85c-2.4375 2.4375-2.4375 6.4005 0 8.8375l16.7875 16.787z"/><path d="m129.661 61.4502c-2.438-2.4375-6.4-2.4375-8.838 0l-66.2864 66.2878 14.1373 14.137 56.5741-56.5748 7.075 7.075 14.137-14.1375z"/></g><path clip-rule="evenodd" d="m677.618 75.18c8.01 0 14.75 3.3 20.2 9.91v-27.93c-3.85-1.59-7.51-2.76-11-3.52s-7.03-1.13-10.64-1.13c-6.331 0-12.381 1.17-18.151 3.52s-10.84 5.61-15.21 9.79-7.85 9.15-10.46 14.92c-2.6 5.77-3.91 12.11-3.91 19.04s1.32 13.31 3.97 19.15c2.64 5.85 6.15 10.9 10.52 15.16s9.42 7.56 15.15 9.91 11.72 3.52 17.971 3.52c3.05 0 6.13-.3 9.26-.9s6.49-1.53 10.1-2.8l2.4-.84v-27.69c-6.01 6.37-12.78 9.55-20.32 9.55-3.45 0-6.651-.64-9.621-1.91s-5.55-3.02-7.75-5.25-3.93-4.85-5.17-7.88c-1.24-3.02-1.86-6.33-1.86-9.91s.62-6.76 1.86-9.79c1.24-3.02 2.95-5.63 5.11-7.82s4.75-3.92 7.75-5.19c3.01-1.27 6.27-1.91 9.801-1.91zm-259.853-9.69c0 6.87-5.61 12.43-12.52 12.43-6.911 0-12.521-5.57-12.521-12.43s5.61-12.43 12.521-12.43c6.91 0 12.52 5.57 12.52 12.43zm59.69 38.09c-3.77-2.55-7.57-3.82-11.42-3.82-2.08 0-4.03.36-5.83 1.07-1.8.72-3.39 1.73-4.75 3.04s-2.42 2.86-3.19 4.65c-.76 1.79-1.14 3.8-1.14 6.03s.38 4.12 1.14 5.91 1.8 3.34 3.13 4.65c1.32 1.31 2.9 2.33 4.75 3.04 1.84.72 3.81 1.07 5.89 1.07 4.09 0 7.89-1.39 11.42-4.18v18.38c-5.37 2.31-10.46 3.46-15.27 3.46-4.49 0-8.76-.76-12.8-2.27-4.05-1.51-7.61-3.68-10.7-6.51-3.08-2.82-5.55-6.21-7.39-10.14-1.84-3.94-2.76-8.33-2.76-13.19s.88-9.29 2.64-13.31 4.17-7.48 7.21-10.38 6.67-5.17 10.88-6.8 8.71-2.45 13.52-2.45c5.29 0 10.18 1.11 14.67 3.34v18.38zm-180.692-19.81h-21.76v61.22h21.76v-30.19c0-3.26.26-5.91.78-7.94s1.24-3.62 2.16-4.77 1.98-1.93 3.19-2.33c1.2-.4 2.48-.6 3.85-.6 1.6 0 3.01.22 4.21.66s2.18 1.25 2.95 2.45c.76 1.19 1.341 2.81 1.741 4.83.4 2.03.6 4.6.6 7.7v30.19h21.76v-30.19c0-10.11 3.49-15.16 10.46-15.16 1.28 0 2.48.2 3.61.6 1.12.4 2.1 1.15 2.95 2.27.84 1.11 1.48 2.66 1.92 4.65s.66 4.54.66 7.64v30.19h21.76v-39.74c0-4.06-.54-7.52-1.62-10.38s-2.55-5.19-4.39-6.98-4.05-3.1-6.61-3.94c-2.57-.84-5.29-1.25-8.18-1.25-9.06 0-16.03 3.86-20.92 11.58-4.81-7.64-11.78-11.46-20.92-11.46-7.371 0-14.021 2.82-19.961 8.47zm119.262 61.22v-61.22h-21.761v61.22zm98.081-61.23h-21.761v61.23h21.761v-26.26c0-5.73 1.26-10.08 3.79-13.07 2.53-2.98 6.31-4.48 11.36-4.48 3.37 0 6.49.72 9.38 2.15v-20.65c-.88-.16-1.66-.24-2.34-.24h-1.86c-4.49 0-8.41.97-11.78 2.92s-6.21 4.75-8.54 8.41v-10.03zm53.94 35.98c-.76-1.71-1.14-3.6-1.14-5.67 0-1.91.38-3.7 1.14-5.37s1.76-3.14 3.01-4.42c1.24-1.27 2.73-2.27 4.45-2.98 1.72-.72 3.55-1.07 5.47-1.07s3.751.36 5.471 1.07c1.72.72 3.21 1.71 4.45 2.98s2.24 2.76 3.01 4.48c.76 1.71 1.14 3.52 1.14 5.43s-.38 3.84-1.14 5.55-1.76 3.2-3.01 4.48c-1.24 1.27-2.72 2.27-4.45 2.98-1.72.72-3.551 1.07-5.471 1.07s-3.75-.36-5.47-1.07c-1.72-.72-3.21-1.71-4.45-2.98s-2.24-2.76-3.01-4.48zm-24.1-5.91c0-4.54.92-8.77 2.76-12.71s4.41-7.36 7.69-10.26 7.19-5.19 11.72-6.86 9.48-2.51 14.85-2.51c5.371 0 10.201.82 14.731 2.45s8.46 3.9 11.78 6.8c3.33 2.9 5.91 6.37 7.75 10.38 1.84 4.02 2.76 8.45 2.76 13.31s-.94 9.29-2.83 13.31c-1.88 4.02-4.47 7.48-7.75 10.38-3.29 2.9-7.23 5.15-11.84 6.74s-9.6 2.39-14.971 2.39c-5.37 0-10.18-.8-14.67-2.39s-8.36-3.86-11.6-6.8c-3.25-2.94-5.79-6.47-7.63-10.56-1.84-4.1-2.76-8.65-2.76-13.67zm164.702 31.15 15.39-89.99h23.32l18.151 47.98 18.03-47.98h23.32l15.39 89.99h-23.44l-7.81-51.8-21.4 51.8h-9.38l-20.321-51.8-7.82 51.8h-23.44zm165.582-71.55c2.57.99 5.13 2.53 7.69 4.59l9.38-18.26c-4.49-2.39-9.18-4.2-14.07-5.43s-9.58-1.85-14.07-1.85c-4.81 0-9.16.72-13.04 2.15-3.891 1.43-7.171 3.44-9.861 6.03-2.68 2.59-4.77 5.69-6.25 9.31s-2.22 7.66-2.22 12.11.7 8.14 2.1 11.04 3.25 5.31 5.53 7.22 4.89 3.44 7.81 4.6 5.911 2.21 8.961 3.16c2.57.88 4.75 1.67 6.55 2.39s3.27 1.49 4.39 2.33c1.12.83 1.92 1.75 2.4 2.74s.72 2.17.72 3.52c0 2.23-.94 4.22-2.83 5.97-1.88 1.75-4.75 2.62-8.6 2.62-3.37 0-6.77-.76-10.221-2.27-3.45-1.51-6.93-3.82-10.46-6.92l-10.1 18.86c9.78 6.76 20.401 10.14 31.861 10.14 5.53 0 10.48-.74 14.85-2.21s8.05-3.54 11.06-6.21c3.01-2.66 5.29-5.87 6.85-9.61s2.34-7.92 2.34-12.53c0-6.84-1.78-12.39-5.35-16.65s-9.2-7.66-16.89-10.2c-1.92-.64-3.87-1.23-5.83-1.79s-3.73-1.21-5.29-1.97-2.83-1.65-3.79-2.69c-.96-1.03-1.44-2.35-1.44-3.94 0-2.31.96-4.18 2.89-5.61 1.92-1.43 4.41-2.15 7.45-2.15 2.4 0 4.89.5 7.45 1.49z" fill="#2b2c30" fill-rule="evenodd"/></svg>