<svg fill="none" viewBox="0 0 262 33" xmlns="http://www.w3.org/2000/svg"><g clip-rule="evenodd" fill-rule="evenodd"><path d="m27 0c-7.2 0-11.7 3.6-13.5 10.8 2.7-3.6 5.85-4.95 9.45-4.05 2.054.513 3.522 2.004 5.147 3.653 2.647 2.687 5.711 5.797 12.403 5.797 7.2 0 11.7-3.6 13.5-10.8-2.7 3.6-5.85 4.95-9.45 4.05-2.054-.513-3.522-2.004-5.147-3.653-2.647-2.687-5.711-5.797-12.403-5.797zm-13.5 16.2c-7.2 0-11.7 3.6-13.5 10.8 2.7-3.6 5.85-4.95 9.45-4.05 2.054.514 3.522 2.004 5.147 3.653 2.647 2.687 5.711 5.797 12.403 5.797 7.2 0 11.7-3.6 13.5-10.8-2.7 3.6-5.85 4.95-9.45 4.05-2.054-.513-3.522-2.004-5.147-3.653-2.647-2.687-5.711-5.797-12.403-5.797z" fill="#38bdf8"/><path d="m80.996 13.652h-4.712v9.12c0 2.432 1.596 2.394 4.712 2.242v3.686c-6.308.76-8.816-.988-8.816-5.928v-9.12h-3.496v-3.95204h3.496v-5.104l4.104-1.216v6.32h4.712zm17.962-3.95204h4.104v19.00004h-4.104v-2.736c-1.444 2.014-3.686 3.23-6.65 3.23-5.168 0-9.462-4.37-9.462-9.994 0-5.662 4.294-9.99404 9.462-9.99404 2.964 0 5.206 1.21604 6.65 3.19204zm-6.004 15.58004c3.42 0 6.004-2.546 6.004-6.08s-2.584-6.08-6.004-6.08-6.004 2.546-6.004 6.08 2.584 6.08 6.004 6.08zm16.948-18.43004c-1.444 0-2.622-1.216-2.622-2.622.001-.69499.278-1.36114.769-1.85257.492-.49144 1.158-.76811 1.853-.76943.695.00132 1.361.27799 1.853.76943.491.49143.768 1.15758.769 1.85257 0 1.406-1.178 2.622-2.622 2.622zm-2.052 21.85004v-19.00004h4.104v19.00004zm8.854 0v-27.740039h4.104v27.740039zm30.742-19.00004h4.332l-5.966 19.00004h-4.028l-3.952-12.806-3.99 12.806h-4.028l-5.966-19.00004h4.332l3.686 13.11004 3.99-13.11004h3.914l3.952 13.11004zm9.424-2.85c-1.444 0-2.622-1.216-2.622-2.622.001-.69499.278-1.36114.769-1.85257.492-.49144 1.158-.76811 1.853-.76943.695.00132 1.361.27799 1.853.76943.491.49143.768 1.15758.769 1.85257 0 1.406-1.178 2.622-2.622 2.622zm-2.052 21.85004v-19.00004h4.104v19.00004zm18.848-19.49404c4.256 0 7.296 2.88804 7.296 7.82804v11.666h-4.104v-11.248c0-2.888-1.672-4.408-4.256-4.408-2.698 0-4.826 1.596-4.826 5.472v10.184h-4.104v-19.00004h4.104v2.43204c1.254-1.976 3.306-2.92604 5.89-2.92604zm26.752-7.106h4.104v26.60004h-4.104v-2.736c-1.444 2.014-3.686 3.23-6.65 3.23-5.168 0-9.462-4.37-9.462-9.994 0-5.662 4.294-9.99404 9.462-9.99404 2.964 0 5.206 1.21604 6.65 3.19204zm-6.004 23.18004c3.42 0 6.004-2.546 6.004-6.08s-2.584-6.08-6.004-6.08-6.004 2.546-6.004 6.08 2.584 6.08 6.004 6.08zm23.864 3.914c-5.738 0-10.032-4.37-10.032-9.994 0-5.662 4.294-9.99404 10.032-9.99404 3.724 0 6.954 1.93804 8.474 4.90204l-3.534 2.052c-.836-1.786-2.698-2.926-4.978-2.926-3.344 0-5.89 2.546-5.89 5.966s2.546 5.966 5.89 5.966c2.28 0 4.142-1.178 5.054-2.926l3.534 2.014c-1.596 3.002-4.826 4.94-8.55 4.94zm15.314-14.25c0 3.458 10.222 1.368 10.222 8.398 0 3.8-3.306 5.852-7.41 5.852-3.8 0-6.536-1.71-7.752-4.446l3.534-2.052c.608 1.71 2.128 2.736 4.218 2.736 1.824 0 3.23-.608 3.23-2.128 0-3.382-10.222-1.482-10.222-8.284 0-3.572 3.078-5.81404 6.954-5.81404 3.116 0 5.7 1.44404 7.03 3.95204l-3.458 1.938c-.684-1.482-2.014-2.166-3.572-2.166-1.482 0-2.774.646-2.774 2.014zm17.518 0c0 3.458 10.222 1.368 10.222 8.398 0 3.8-3.306 5.852-7.41 5.852-3.8 0-6.536-1.71-7.752-4.446l3.534-2.052c.608 1.71 2.128 2.736 4.218 2.736 1.824 0 3.23-.608 3.23-2.128 0-3.382-10.222-1.482-10.222-8.284 0-3.572 3.078-5.81404 6.954-5.81404 3.116 0 5.7 1.44404 7.03 3.95204l-3.458 1.938c-.684-1.482-2.014-2.166-3.572-2.166-1.482 0-2.774.646-2.774 2.014z" fill="#fff"/></g></svg>