<svg fill="none" height="407" viewBox="0 0 2048 407" width="2048" xmlns="http://www.w3.org/2000/svg"><path clip-rule="evenodd" d="m467.444 406.664-233.722-406.473082-233.722 406.473082zm235.742-18.503 195.324-369.493h-84.486l-134.738 268.339-134.739-268.339h-84.486l195.324 369.493zm1331.124-369.493v369.494h-69.94v-369.494zm-389.33 231.582c0-28.796 6.01-54.123 18.03-75.98 12.02-21.858 28.78-38.684 50.27-50.48s46.63-17.695 75.41-17.695c25.5 0 48.45 5.552 68.85 16.654s36.61 27.582 48.63 49.439c12.02 21.858 18.22 48.572 18.58 80.144v16.133h-206c1.45 22.898 8.19 40.939 20.21 54.123 12.39 12.837 28.97 19.255 49.73 19.255 13.11 0 25.14-3.469 36.06-10.408 10.93-6.939 19.13-16.306 24.59-28.102l71.59 5.204c-8.75 26.02-25.14 46.837-49.18 62.449-24.05 15.613-51.73 23.419-83.06 23.419-28.78 0-53.92-5.898-75.41-17.694s-38.25-28.623-50.27-50.48c-12.02-21.858-18.03-47.184-18.03-75.981zm207.64-26.02c-2.55-22.552-9.65-39.031-21.31-49.44-11.66-10.755-25.86-16.133-42.62-16.133-19.31 0-34.97 5.725-46.99 17.174-12.03 11.449-19.49 27.582-22.41 48.399zm-325.66-49.44c11.66 9.368 18.94 22.378 21.86 39.031l72.12-3.643c-2.55-21.163-10.01-39.551-22.4-55.164-12.39-15.612-28.41-27.581-48.09-35.908-19.3-8.674-40.61-13.011-63.93-13.011-28.78 0-53.91 5.899-75.41 17.695-21.49 11.796-38.25 28.622-50.27 50.48-12.02 21.857-18.03 47.184-18.03 75.98 0 28.797 6.01 54.123 18.03 75.981 12.02 21.857 28.78 38.684 50.27 50.48 21.5 11.796 46.63 17.694 75.41 17.694 24.04 0 45.9-4.337 65.57-13.01 19.68-9.021 35.7-21.684 48.09-37.991 12.39-16.306 19.85-35.388 22.4-57.245l-72.67-3.123c-2.55 18.388-9.66 32.613-21.31 42.674-11.66 9.715-25.69 14.572-42.08 14.572-22.58 0-40.07-7.806-52.46-23.419-12.38-15.612-18.57-37.816-18.57-66.613 0-28.796 6.19-51 18.57-66.613 12.39-15.612 29.88-23.418 52.46-23.418 15.67 0 29.14 4.857 40.44 14.571zm-354.81-62.462h65.09l1.88 53.086c4.62-15.026 11.04-26.695 19.27-35.007 11.93-12.052 28.57-18.079 49.9-18.079h26.58v56.82h-27.12c-15.19 0-27.66 2.066-37.43 6.198-9.4 4.132-16.63 10.675-21.69 19.629-4.7 8.953-7.05 20.317-7.05 34.091v159.095h-69.43zm-300.225 61.942c-12.021 21.857-18.032 47.184-18.032 75.98 0 28.797 6.011 54.123 18.032 75.981 12.022 21.857 28.779 38.684 50.273 50.48 21.493 11.796 46.629 17.694 75.408 17.694 31.324 0 59.014-7.806 83.054-23.419 24.05-15.612 40.44-36.429 49.18-62.449l-71.58-5.204c-5.46 11.796-13.66 21.163-24.59 28.102s-22.95 10.408-36.064 10.408c-20.765 0-37.34-6.418-49.726-19.255-12.022-13.184-18.761-31.225-20.218-54.123h206.008v-16.133c-.37-31.572-6.56-58.286-18.58-80.144-12.02-21.857-28.23-38.337-48.63-49.439s-43.35-16.654-68.854-16.654c-28.779 0-53.915 5.899-75.408 17.695-21.494 11.796-38.251 28.622-50.273 50.48zm168.305.52c11.65 10.409 18.76 26.888 21.31 49.44h-133.332c2.915-20.817 10.383-36.95 22.404-48.399 12.022-11.449 27.686-17.174 46.994-17.174 16.754 0 30.964 5.378 42.624 16.133z" fill="#000" fill-rule="evenodd"/></svg>